<svg width="445" height="478" viewBox="0 0 445 478" fill="none" xmlns="http://www.w3.org/2000/svg">
<g filter="url(#filter0_d_94_2)">
<ellipse cx="197.718" cy="141.277" rx="98.4828" ry="100.534" transform="rotate(-14.2105 197.718 141.277)" fill="#F9EBEB"/>
<path d="M182.604 182.492C189.873 162.67 214.799 156.358 230.626 170.331L360.494 284.991C378.574 300.953 371.383 330.642 348.004 336.563L158.491 384.554C135.112 390.474 114.657 367.786 122.96 345.143L182.604 182.492Z" fill="#F9EBEB"/>
</g>
<path d="M240.427 359.815L247.362 320.152C247.438 319.687 247.438 319.208 247.346 318.751L221.204 187.769C239.03 172.296 247.097 143.653 241.529 115.758C234.605 81.0638 208.528 61.1211 183.28 71.9514C160.052 81.8944 145.752 115.298 150.854 147.843C155.631 178.342 175.096 198.338 196.459 198.051L199.161 212.118L194.255 245.483C194.079 246.669 194.481 247.887 195.242 248.47L207.439 257.774C208.3 258.434 208.687 259.846 208.354 261.138L202.473 284.014C202.146 285.289 202.514 286.709 203.362 287.359L214.871 296.385C215.699 297.043 216.088 298.411 215.782 299.678L209.97 324.064C209.723 325.104 209.929 326.24 210.498 326.972L237.032 361.219C238.179 362.736 240.055 361.92 240.427 359.815ZM176.504 124.688C173.924 111.762 179.46 98.2735 188.877 94.5425C198.293 90.8115 208.007 98.2576 210.587 111.184C213.167 124.11 207.631 137.599 198.215 141.33C188.798 145.061 179.084 137.615 176.504 124.688Z" fill="url(#paint0_linear_94_2)"/>
<path opacity="0.2" d="M159.758 105.297C165.251 91.9121 174.041 82.0785 184.509 77.5829C195.493 72.8683 207.035 74.3852 216.993 81.8361C227.07 89.3558 234.312 101.986 237.386 117.385C240.427 132.622 239.073 148.383 233.573 161.785C230.119 170.201 225.06 177.454 218.947 182.761C218.316 183.301 217.811 184.052 217.463 184.901C216.908 186.251 216.735 187.872 217.053 189.413L243.04 319.616L237.16 353.236L214.5 324.008L219.865 301.511C220.796 297.604 219.618 293.286 217.038 291.263L207.156 283.507L212.407 263.085C213.44 259.05 212.245 254.652 209.564 252.597L198.8 244.392L203.376 213.232C203.514 212.336 203.487 211.405 203.315 210.545L200.613 196.478C200.118 193.89 198.421 192.112 196.461 192.135C186.949 192.264 177.595 187.894 170.109 179.812C162.358 171.457 157.153 159.934 155.048 146.529C152.886 132.625 154.549 117.989 159.758 105.297ZM212.628 132.574C215.534 125.492 216.28 117.323 214.73 109.557C211.528 93.513 199.42 84.2317 187.732 88.8625C182.075 91.1042 177.356 96.2507 174.456 103.315C171.55 110.397 170.804 118.566 172.354 126.333C175.556 142.376 187.664 151.658 199.352 147.027C205.009 144.785 209.721 139.656 212.628 132.574ZM156.017 102.429C150.495 115.883 148.371 131.964 150.853 147.843C155.631 178.342 175.096 198.338 196.459 198.051L199.161 212.118L194.254 245.483C194.079 246.669 194.481 247.887 195.241 248.47L207.439 257.774C208.299 258.434 208.687 259.846 208.353 261.138L202.473 284.014C202.146 285.289 202.514 286.709 203.362 287.359L214.87 296.385C215.699 297.043 216.088 298.411 215.781 299.678L209.97 324.064C209.723 325.104 209.929 326.24 210.497 326.972L237.031 361.219C238.015 362.496 239.574 362.052 240.2 360.529C240.292 360.304 240.359 360.059 240.409 359.779L247.344 320.115C247.42 319.65 247.419 319.172 247.328 318.715L221.186 187.732C228.09 181.734 233.544 173.759 237.296 164.616C243.23 150.158 244.93 132.796 241.531 115.714C234.606 81.0195 208.529 61.0768 183.281 71.9071C171.376 77.0305 161.816 88.3 156.017 102.429ZM208.887 129.706C206.648 135.161 202.913 139.468 198.215 141.33C188.798 145.061 179.084 137.615 176.504 124.688C175.217 118.239 175.959 111.637 178.197 106.183C180.436 100.729 184.171 96.4213 188.869 94.5597C198.286 90.8287 208 98.2748 210.58 111.201C211.867 117.651 211.125 124.252 208.887 129.706Z" fill="#FCF4F4"/>
<defs>
<filter id="filter0_d_94_2" x="95.0862" y="40.8417" width="279.571" height="352.665" filterUnits="userSpaceOnUse" color-interpolation-filters="sRGB">
<feFlood flood-opacity="0" result="BackgroundImageFix"/>
<feColorMatrix in="SourceAlpha" type="matrix" values="0 0 0 0 0 0 0 0 0 0 0 0 0 0 0 0 0 0 127 0" result="hardAlpha"/>
<feOffset dy="4"/>
<feGaussianBlur stdDeviation="2"/>
<feComposite in2="hardAlpha" operator="out"/>
<feColorMatrix type="matrix" values="0 0 0 0 0 0 0 0 0 0 0 0 0 0 0 0 0 0 0.25 0"/>
<feBlend mode="normal" in2="BackgroundImageFix" result="effect1_dropShadow_94_2"/>
<feBlend mode="normal" in="SourceGraphic" in2="effect1_dropShadow_94_2" result="shape"/>
</filter>
<linearGradient id="paint0_linear_94_2" x1="281.934" y1="260.28" x2="120.077" y2="193.85" gradientUnits="userSpaceOnUse">
<stop stop-color="#FF8812"/>
<stop offset="0.9982" stop-color="#ED9500"/>
</linearGradient>
</defs>
</svg>
