<svg width="106" height="116" viewBox="0 0 106 116" fill="none" xmlns="http://www.w3.org/2000/svg">
<path d="M15.12 16.5202C15.12 7.39633 21.8894 0 30.24 0C38.5905 0 45.36 7.39633 45.36 16.5202C45.36 21.8459 43.0534 26.5831 39.4723 29.6041C39.3645 29.691 39.2575 29.7788 39.1512 29.8676C36.6523 31.8627 33.572 33.0403 30.24 33.0403C21.8894 33.0403 15.12 25.644 15.12 16.5202Z" fill="#FF8811"/>
<path d="M66.3677 29.6041C66.4754 29.691 66.5825 29.7789 66.6888 29.8677C69.1876 31.8628 72.2683 33.0403 75.6 33.0403C83.9508 33.0403 90.72 25.644 90.72 16.5202C90.72 7.39633 83.9508 0 75.6 0C67.2494 0 60.48 7.39633 60.48 16.5202C60.48 21.8459 62.7865 26.5831 66.3677 29.6041Z" fill="#FF8811"/>
<path d="M39.8228 41.3004C42.4371 36.3626 47.3235 33.0403 52.92 33.0403C58.5166 33.0403 63.403 36.3626 66.0173 41.3004C67.3038 43.7303 68.04 46.5514 68.04 49.5605C68.04 58.6844 61.2706 66.0807 52.92 66.0807C44.5695 66.0807 37.8 58.6844 37.8 49.5605C37.8 46.5514 38.5363 43.7303 39.8228 41.3004Z" fill="#FF8811"/>
<path d="M11.3398 41.3004H31.5306C30.6947 43.884 30.24 46.6642 30.24 49.5605C30.24 55.9071 32.4237 61.6966 36.015 66.0807H34.0198C25.8162 66.0807 18.8335 71.7916 16.2198 79.7726C13.6497 78.6302 11.2718 77.1376 9.16385 75.289C3.46981 70.2956 0 62.9095 0 53.6905C0 46.848 5.07699 41.3004 11.3398 41.3004Z" fill="#FF8811"/>
<path d="M71.82 66.0807C80.0233 66.0807 87.0065 71.7915 89.62 79.7726C92.1904 78.6302 94.568 77.1376 96.6765 75.289C102.37 70.2956 105.84 62.9095 105.84 53.6905C105.84 46.8476 100.763 41.3004 94.5 41.3004H74.3095C75.1449 43.884 75.6 46.6642 75.6 49.5605C75.6 55.9071 73.4159 61.6966 69.8249 66.0807H71.82Z" fill="#FF8811"/>
<path d="M82.3065 82.0061C82.8561 83.4624 83.1601 85.0582 83.1601 86.7309C83.1601 95.95 79.69 103.336 73.9966 108.329C68.3923 113.244 60.8813 115.641 52.9201 115.641C44.9588 115.641 37.4479 113.244 31.8439 108.329C26.1499 103.336 22.6801 95.95 22.6801 86.7309C22.6801 85.0582 22.9836 83.4624 23.5337 82.0061C25.2337 77.5069 29.2883 74.3408 34.0199 74.3408H71.8201C76.5519 74.3408 80.6063 77.5069 82.3065 82.0061Z" fill="#FF8811"/>
</svg>
