<svg width="84" height="80" viewBox="0 0 84 80" fill="none" xmlns="http://www.w3.org/2000/svg">
<path d="M70.8224 0H12.4981C5.59558 0 0 5.31515 0 11.8717V67.2731C0 73.8297 5.59558 79.1448 12.4981 79.1448H70.8224C77.7249 79.1448 83.3205 73.8297 83.3205 67.2731V11.8717C83.3205 5.31515 77.7249 0 70.8224 0Z" fill="#1877F2"/>
<path d="M57.8687 51.0113L59.7238 39.5724H48.1696V32.1526C48.1696 29.0301 49.7807 25.9694 54.9557 25.9694H60.2121V16.2309C60.2121 16.2309 55.4439 15.458 50.8873 15.458C41.3673 15.458 35.1508 20.9301 35.1508 30.8542V39.5724H24.573V51.0113H35.1508V79.1449H48.1696V51.0113H57.8687Z" fill="white"/>
</svg>
