<svg width="84" height="56" viewBox="0 0 84 56" fill="none" xmlns="http://www.w3.org/2000/svg">
<path d="M33.0678 38.0886L55.5904 27.0206L33.0678 15.86V38.0886Z" fill="white"/>
<path opacity="0.12" d="M33.0678 15.86L52.8239 28.3809L55.5904 27.0206L33.0678 15.86Z" fill="#420000"/>
<path d="M82.4421 11.9954C82.4421 11.9954 81.6287 6.55418 79.1236 4.14274C75.9678 0.98931 72.4215 0.98931 70.7623 0.803815C59.1475 0 41.6765 0 41.6765 0H41.644C41.644 0 24.173 0 12.4932 0.803815C10.8665 0.98931 7.32023 0.98931 4.13187 4.14274C1.65925 6.55418 0.845894 11.9954 0.845894 11.9954C0.845894 11.9954 0 18.4259 0 24.8255V30.8232C0 37.2228 0.845894 43.6224 0.845894 43.6224C0.845894 43.6224 1.65925 49.0636 4.1644 51.4751C7.32023 54.6285 11.4846 54.5357 13.3391 54.8449C20.0086 55.4632 41.644 55.6487 41.644 55.6487C41.644 55.6487 59.1475 55.6178 70.7948 54.814C72.4215 54.6285 75.9678 54.6285 79.1561 51.4751C81.6613 49.0636 82.4746 43.6224 82.4746 43.6224C82.4746 43.6224 83.3205 37.2228 83.3205 30.8232V24.8255C83.288 18.4259 82.4421 11.9954 82.4421 11.9954ZM33.0549 38.0884V15.8599L55.5687 27.0205L33.0549 38.0884Z" fill="url(#paint0_linear_21_413)"/>
<defs>
<linearGradient id="paint0_linear_21_413" x1="10660.9" y1="0.000100168" x2="10660.9" y2="10019.8" gradientUnits="userSpaceOnUse">
<stop stop-color="#E52D27"/>
<stop offset="1" stop-color="#BF171D"/>
</linearGradient>
</defs>
</svg>
