<svg width="106" height="116" viewBox="0 0 106 116" fill="none" xmlns="http://www.w3.org/2000/svg">
<path d="M39.69 0C32.3833 0 26.46 6.47186 26.46 14.4552V28.9103H13.23C5.92334 28.9103 0 35.3822 0 43.3655V72.2758C0 80.259 5.92334 86.7309 13.23 86.7309H26.46V101.186C26.46 109.169 32.3833 115.641 39.69 115.641H66.15C73.4567 115.641 79.38 109.169 79.38 101.186V86.7309H92.61C99.9168 86.7309 105.84 80.259 105.84 72.2758V43.3655C105.84 35.3822 99.9168 28.9103 92.61 28.9103H79.38V14.4552C79.38 6.47186 73.4567 0 66.15 0H39.69Z" fill="#FF8811"/>
</svg>
