<svg width="106" height="100" viewBox="0 0 106 100" fill="none" xmlns="http://www.w3.org/2000/svg">
<path d="M42.5783 4.10739C48.8617 -0.381462 56.9811 -0.381297 63.2645 4.10764L104.128 33.302C105.187 34.0584 105.829 35.3435 105.84 36.7256C105.85 38.1078 105.227 39.4039 104.179 40.1787L63.516 70.2539C57.1171 74.9869 48.7257 74.987 42.3267 70.2548L7.55999 44.5415V70.6248C7.55999 72.9054 5.86761 74.7548 3.78 74.7548C1.69238 74.7548 0 72.9054 0 70.6248V37.5845C0 37.4446 0.00635062 37.3065 0.018749 37.1702C0.00536782 37.0234 -0.000967474 36.875 0.000151405 36.7256C0.0102062 35.3435 0.652578 34.0583 1.71143 33.3019L42.5783 4.10739Z" fill="#FF8811"/>
<path d="M15.1199 78.8849V60.1074L38.0888 77.095C47.0475 83.7204 58.7954 83.7204 67.7539 77.0941L90.7198 60.1081V78.8849C90.7198 79.8654 90.4007 80.8128 89.8201 81.5595C89.8201 81.5595 89.8201 81.5595 86.9398 78.8849L89.8201 81.5595L89.8096 81.5727L89.7952 81.5917L89.7506 81.6479L89.6047 81.828C89.4822 81.9767 89.3091 82.1832 89.0868 82.4392C88.6423 82.9505 87.9989 83.6601 87.1651 84.5009C85.5004 86.1802 83.0615 88.3997 79.9173 90.6159C73.638 95.0424 64.4289 99.5351 52.9206 99.5351C41.4122 99.5351 32.2027 95.0424 25.923 90.6159C22.7791 88.3997 20.3401 86.1802 18.675 84.5009C17.8412 83.6601 17.1977 82.9505 16.7531 82.4392C16.5306 82.184 16.3576 81.9775 16.2351 81.828L16.0893 81.6479L16.045 81.5917L16.03 81.5727L16.0243 81.5653L18.8999 78.8849C16.0198 81.5603 16.0243 81.5653 16.0243 81.5653C15.4434 80.8186 15.1199 79.8654 15.1199 78.8849Z" fill="#FF8811"/>
</svg>
