<svg width="106" height="116" viewBox="0 0 106 116" fill="none" xmlns="http://www.w3.org/2000/svg">
<path d="M52.92 115.641C82.1468 115.641 105.84 89.754 105.84 57.8206C105.84 25.8872 82.1468 0 52.92 0C23.6931 0 0 25.8872 0 57.8206C0 89.754 23.6931 115.641 52.92 115.641ZM52.92 9.63677C56.2162 9.63677 60.6413 13.0682 64.497 22.3362C65.3324 24.3443 66.1013 26.5441 66.7908 28.9103H39.0492C39.7387 26.5441 40.5076 24.3443 41.343 22.3362C45.1987 13.0682 49.6238 9.63677 52.92 9.63677ZM33.3136 18.3485C31.9826 21.5479 30.8195 25.0922 29.8478 28.9103H17.6367C22.2565 22.1905 28.4467 16.8332 35.6122 13.4894C34.7761 15.0446 34.0096 16.6755 33.3136 18.3485ZM27.8976 38.5471C26.9622 44.5941 26.46 51.0889 26.46 57.8206C26.46 64.5523 26.9622 71.0471 27.8976 77.0941H12.4895C10.1293 71.192 8.82 64.6733 8.82 57.8206C8.82 50.9679 10.1293 44.4492 12.4895 38.5471H27.8976ZM29.8478 86.7309C30.8195 90.549 31.9826 94.0934 33.3136 97.2928C34.0096 98.9657 34.7761 100.596 35.6122 102.152C28.4467 98.8077 22.2565 93.4506 17.6367 86.7309H29.8478ZM39.0492 86.7309H66.7908C66.1013 89.0967 65.3324 91.2968 64.497 93.3051C60.6413 102.573 56.2162 106.004 52.92 106.004C49.6238 106.004 45.1987 102.573 41.343 93.3051C40.5076 91.2968 39.7387 89.0967 39.0492 86.7309ZM68.9842 77.0941H36.8558C35.8478 71.208 35.28 64.7009 35.28 57.8206C35.28 50.9403 35.8478 44.4332 36.8558 38.5471H68.9842C69.9922 44.4332 70.56 50.9403 70.56 57.8206C70.56 64.7009 69.9922 71.208 68.9842 77.0941ZM75.9922 86.7309H88.2035C83.5836 93.4506 77.3929 98.8077 70.2278 102.152C71.0636 100.596 71.8301 98.9657 72.526 97.2928C73.8578 94.0934 75.0203 90.549 75.9922 86.7309ZM93.3509 77.0941H77.9423C78.8781 71.0471 79.38 64.5523 79.38 57.8206C79.38 51.0889 78.8781 44.5941 77.9423 38.5471H93.3509C95.7111 44.4492 97.02 50.9679 97.02 57.8206C97.02 64.6733 95.7111 71.192 93.3509 77.0941ZM70.2278 13.4894C77.3929 16.8332 83.5836 22.1905 88.2035 28.9103H75.9922C75.0203 25.0922 73.8578 21.5479 72.526 18.3485C71.8301 16.6755 71.0636 15.0446 70.2278 13.4894Z" fill="#FF8811"/>
</svg>
