<svg width="84" height="80" viewBox="0 0 84 80" fill="none" xmlns="http://www.w3.org/2000/svg">
<path d="M71.1622 0H12.8378C5.9353 0 0.339722 5.31515 0.339722 11.8717V67.2731C0.339722 73.8297 5.9353 79.1448 12.8378 79.1448H71.1622C78.0647 79.1448 83.6602 73.8297 83.6602 67.2731V11.8717C83.6602 5.31515 78.0647 0 71.1622 0Z" fill="black"/>
<path d="M71.1622 0H12.8378C5.9353 0 0.339722 5.31515 0.339722 11.8717V67.2731C0.339722 73.8297 5.9353 79.1448 12.8378 79.1448H71.1622C78.0647 79.1448 83.6602 73.8297 83.6602 67.2731V11.8717C83.6602 5.31515 78.0647 0 71.1622 0Z" fill="url(#paint0_radial_21_405)"/>
<path d="M71.1622 0H12.8378C5.9353 0 0.339722 5.31515 0.339722 11.8717V67.2731C0.339722 73.8297 5.9353 79.1448 12.8378 79.1448H71.1622C78.0647 79.1448 83.6602 73.8297 83.6602 67.2731V11.8717C83.6602 5.31515 78.0647 0 71.1622 0Z" fill="url(#paint1_linear_21_405)"/>
<path d="M53.8797 15.7671H30.1203C22.8403 15.7671 16.9388 21.3729 16.9388 28.2881V50.8567C16.9388 57.7718 22.8403 63.3777 30.1203 63.3777H53.8797C61.1597 63.3777 67.0613 57.7718 67.0613 50.8567V28.2881C67.0613 21.3729 61.1597 15.7671 53.8797 15.7671Z" stroke="white" stroke-width="6.20156"/>
<path d="M42 50.7021C48.4711 50.7021 53.717 45.7192 53.717 39.5724C53.717 33.4256 48.4711 28.4426 42 28.4426C35.5289 28.4426 30.2831 33.4256 30.2831 39.5724C30.2831 45.7192 35.5289 50.7021 42 50.7021Z" stroke="white" stroke-width="6.20156"/>
<path d="M56.809 26.4331C57.3482 26.4331 57.7854 26.0178 57.7854 25.5056C57.7854 24.9934 57.3482 24.5781 56.809 24.5781C56.2697 24.5781 55.8326 24.9934 55.8326 25.5056C55.8326 26.0178 56.2697 26.4331 56.809 26.4331Z" stroke="white" stroke-width="6.20156"/>
<defs>
<radialGradient id="paint0_radial_21_405" cx="0" cy="0" r="1" gradientUnits="userSpaceOnUse" gradientTransform="translate(33.6679 79.1448) scale(83.3205 79.1448)">
<stop offset="0.1" stop-color="#FFDD55"/>
<stop offset="0.5" stop-color="#FF543E"/>
<stop offset="1" stop-color="#C837AB"/>
</radialGradient>
<linearGradient id="paint1_linear_21_405" x1="0.339722" y1="0" x2="15.4321" y2="79.4434" gradientUnits="userSpaceOnUse">
<stop offset="0.1" stop-color="#3771C8"/>
<stop offset="0.5" stop-color="#6600FF" stop-opacity="0"/>
</linearGradient>
</defs>
</svg>
