<svg width="409" height="223" viewBox="0 0 409 223" fill="none" xmlns="http://www.w3.org/2000/svg">
<path d="M161.5 195.125V176.542C161.5 166.684 157.496 157.231 150.37 150.261C143.244 143.291 133.578 139.375 123.5 139.375H47.5C37.4218 139.375 27.7563 143.291 20.6299 150.261C13.5036 157.231 9.5 166.684 9.5 176.542V195.125" stroke="black" stroke-width="2" stroke-linecap="round" stroke-linejoin="round"/>
<path d="M85.5 102.208C106.487 102.208 123.5 85.5683 123.5 65.0417C123.5 44.5151 106.487 27.875 85.5 27.875C64.5132 27.875 47.5 44.5151 47.5 65.0417C47.5 85.5683 64.5132 102.208 85.5 102.208Z" stroke="black" stroke-width="2" stroke-linecap="round" stroke-linejoin="round"/>
<path d="M152 29.083C160.174 31.13 167.419 35.7795 172.593 42.2986C177.766 48.8178 180.575 56.8356 180.575 65.0882C180.575 73.3408 177.766 81.3587 172.593 87.8778C167.419 94.3969 160.174 99.0465 152 101.093" stroke="black" stroke-width="2" stroke-linecap="round" stroke-linejoin="round"/>
<path d="M342.5 195.125V176.542C342.5 166.684 338.496 157.231 331.37 150.261C324.244 143.291 314.578 139.375 304.5 139.375H228.5C218.422 139.375 208.756 143.291 201.63 150.261C194.504 157.231 190.5 166.684 190.5 176.542V195.125" stroke="black" stroke-width="2" stroke-linecap="round" stroke-linejoin="round"/>
<path d="M266.5 102.208C287.487 102.208 304.5 85.5683 304.5 65.0417C304.5 44.5151 287.487 27.875 266.5 27.875C245.513 27.875 228.5 44.5151 228.5 65.0417C228.5 85.5683 245.513 102.208 266.5 102.208Z" stroke="black" stroke-width="2" stroke-linecap="round" stroke-linejoin="round"/>
<path d="M399.5 195.125V176.542C399.494 168.307 396.691 160.307 391.533 153.799C386.375 147.29 379.152 142.642 371 140.583" stroke="black" stroke-width="2" stroke-linecap="round" stroke-linejoin="round"/>
<path d="M333 29.083C341.174 31.13 348.419 35.7795 353.593 42.2986C358.766 48.8178 361.575 56.8356 361.575 65.0882C361.575 73.3408 358.766 81.3587 353.593 87.8778C348.419 94.3969 341.174 99.0465 333 101.093" stroke="black" stroke-width="2" stroke-linecap="round" stroke-linejoin="round"/>
</svg>
