<svg width="301" height="317" viewBox="0 0 301 317" fill="none" xmlns="http://www.w3.org/2000/svg">
<path d="M181.427 313.815L188.362 274.152C188.438 273.687 188.438 273.208 188.346 272.751L162.204 141.769C180.03 126.296 188.097 97.6529 182.529 69.7578C175.605 35.0638 149.528 15.1211 124.28 25.9514C101.052 35.8944 86.7523 69.2978 91.8537 101.843C96.6311 132.342 116.096 152.338 137.459 152.051L140.161 166.118L135.255 199.483C135.079 200.669 135.481 201.887 136.242 202.47L148.439 211.774C149.3 212.434 149.687 213.846 149.354 215.138L143.473 238.014C143.146 239.289 143.514 240.709 144.362 241.359L155.871 250.385C156.699 251.043 157.088 252.411 156.782 253.678L150.97 278.064C150.723 279.104 150.929 280.24 151.498 280.972L178.032 315.219C179.179 316.736 181.055 315.92 181.427 313.815ZM117.504 78.6884C114.924 65.7621 120.46 52.2735 129.877 48.5425C139.293 44.8115 149.007 52.2576 151.587 65.1839C154.167 78.1102 148.631 91.5988 139.215 95.3298C129.798 99.0608 120.084 91.6147 117.504 78.6884Z" fill="url(#paint0_linear_19_41)"/>
<path opacity="0.2" d="M100.758 59.2968C106.251 45.9121 115.041 36.0785 125.509 31.5829C136.493 26.8683 148.035 28.3852 157.993 35.8361C168.07 43.3558 175.312 55.9862 178.386 71.3849C181.427 86.6223 180.073 102.383 174.573 115.785C171.119 124.201 166.06 131.454 159.947 136.761C159.316 137.301 158.811 138.052 158.463 138.901C157.908 140.251 157.735 141.872 158.053 143.413L184.04 273.616L178.16 307.236L155.5 278.008L160.865 255.511C161.796 251.604 160.618 247.286 158.038 245.263L148.156 237.507L153.407 217.085C154.44 213.05 153.245 208.652 150.564 206.597L139.8 198.392L144.376 167.232C144.514 166.336 144.487 165.405 144.315 164.545L141.613 150.478C141.118 147.89 139.421 146.112 137.461 146.135C127.949 146.264 118.595 141.894 111.109 133.812C103.358 125.457 98.1534 113.934 96.0484 100.529C93.8861 86.6253 95.549 71.9889 100.758 59.2968ZM153.628 86.574C156.534 79.492 157.28 71.3232 155.73 63.5566C152.528 47.513 140.42 38.2317 128.732 42.8625C123.075 45.1042 118.356 50.2507 115.456 57.3154C112.55 64.3973 111.804 72.5662 113.354 80.3327C116.556 96.3764 128.664 105.658 140.352 101.027C146.009 98.7852 150.721 93.656 153.628 86.574ZM97.017 56.4293C91.4952 69.8833 89.3707 85.964 91.8534 101.843C96.6308 132.342 116.096 152.338 137.459 152.051L140.161 166.118L135.254 199.483C135.079 200.669 135.481 201.887 136.241 202.47L148.439 211.774C149.299 212.434 149.687 213.846 149.353 215.138L143.473 238.014C143.146 239.289 143.514 240.709 144.362 241.359L155.87 250.385C156.699 251.043 157.088 252.411 156.781 253.678L150.97 278.064C150.723 279.104 150.929 280.24 151.497 280.972L178.031 315.219C179.015 316.496 180.574 316.052 181.2 314.529C181.292 314.304 181.359 314.059 181.409 313.779L188.344 274.115C188.42 273.65 188.419 273.172 188.328 272.715L162.186 141.732C169.09 135.734 174.544 127.759 178.296 118.616C184.23 104.158 185.93 86.7957 182.531 69.7136C175.606 35.0195 149.529 15.0768 124.281 25.9071C112.376 31.0305 102.816 42.3 97.017 56.4293ZM149.887 83.7065C147.648 89.1608 143.913 93.4681 139.215 95.3297C129.798 99.0607 120.084 91.6146 117.504 78.6883C116.217 72.2386 116.959 65.6373 119.197 60.183C121.436 54.7286 125.171 50.4213 129.869 48.5597C139.286 44.8287 149 52.2748 151.58 65.2011C152.867 71.6508 152.125 78.2521 149.887 83.7065Z" fill="#FCF4F4"/>
<defs>
<linearGradient id="paint0_linear_19_41" x1="222.934" y1="214.28" x2="61.0774" y2="147.85" gradientUnits="userSpaceOnUse">
<stop stop-color="#FF8812"/>
<stop offset="0.9982" stop-color="#ED9500"/>
</linearGradient>
</defs>
</svg>
