<svg width="267" height="267" viewBox="0 0 267 267" fill="none" xmlns="http://www.w3.org/2000/svg">
<path d="M133.5 0C59.752 0 0 59.752 0 133.5C0 207.248 59.752 267 133.5 267C207.248 267 267 207.248 267 133.5C267 59.752 207.248 0 133.5 0ZM133.5 51.6774C159.662 51.6774 180.871 72.8867 180.871 99.0484C180.871 125.21 159.662 146.419 133.5 146.419C107.338 146.419 86.129 125.21 86.129 99.0484C86.129 72.8867 107.338 51.6774 133.5 51.6774ZM133.5 236.855C101.901 236.855 73.5865 222.536 54.6381 200.142C64.7583 181.086 84.5679 167.952 107.661 167.952C108.953 167.952 110.245 168.167 111.483 168.544C118.481 170.805 125.802 172.258 133.5 172.258C141.198 172.258 148.573 170.805 155.517 168.544C156.755 168.167 158.047 167.952 159.339 167.952C182.432 167.952 202.242 181.086 212.362 200.142C193.414 222.536 165.099 236.855 133.5 236.855Z" fill="#FF8811"/>
</svg>
