<svg width="106" height="154" viewBox="0 0 106 154" fill="none" xmlns="http://www.w3.org/2000/svg">
<path d="M53.0616 0C29.0551 0 13.506 9.83583 1.29832 27.3772C-0.91619 30.5593 -0.23346 34.9221 2.85567 37.2645L15.83 47.1021C18.9498 49.4676 23.3887 48.9145 25.8312 45.8545C33.365 36.4163 38.9535 30.9821 50.7214 30.9821C59.974 30.9821 71.4187 36.9369 71.4187 45.9093C71.4187 52.6921 65.8194 56.1755 56.6834 61.2975C46.0295 67.2706 31.931 74.7043 31.931 93.3001V96.2439C31.931 100.231 35.1627 103.462 39.1493 103.462H60.9458C64.9324 103.462 68.1641 100.231 68.1641 96.2439V94.5076C68.1641 81.617 105.84 81.0801 105.84 46.1971C105.84 19.9273 78.5906 0 53.0616 0ZM50.0477 112.322C38.5598 112.322 29.2136 121.669 29.2136 133.157C29.2136 144.644 38.5598 153.99 50.0477 153.99C61.5356 153.99 70.8818 144.644 70.8818 133.156C70.8818 121.668 61.5356 112.322 50.0477 112.322Z" fill="#FF8812"/>
</svg>
